<svg xmlns="http://www.w3.org/2000/svg" width="260" height="46" viewBox="0 0 260 46">
  <a href="https://ko-fi.com/yummyfiles" target="_blank" rel="noopener noreferrer" style="cursor: pointer;">
    <!-- Pitch Black Angled Background -->
    <polygon points="0,0 250,0 260,10 260,46 10,46 0,36" fill="#000000" />
    
    <!-- White Tech UI Border -->
    <polygon points="2,2 249,2 258,11 258,44 11,44 2,35" fill="none" stroke="#FFFFFF" stroke-width="1.5" />
    
    <!-- Smooth Cup Handle -->
    <path d="M 40 16 H 45 C 49 16 51 18 51 22 C 51 26 49 28 45 28 H 40" fill="none" stroke="#FFFFFF" stroke-width="3.5" stroke-linecap="round"/>
    
    <!-- Smooth Cup Body -->
    <path d="M 22 13 H 42 V 23 C 42 30 37 35 32 35 C 27 35 22 30 22 23 V 13 Z" fill="#FFFFFF" />
    
    <!-- Smooth Heart Cutout (Black) -->
    <path d="M 32 28 C 32 28 27 24 27 21 C 27 19.5 28 18.5 29.5 18.5 C 31 18.5 32 20 32 20 C 32 20 33 18.5 34.5 18.5 C 36 18.5 37 19.5 37 21 C 37 24 32 28 32 28 Z" fill="#000000" />

    <!-- Terminal Button Text -->
    <text x="64" y="28" font-family="'JetBrains Mono', monospace" font-size="16" font-weight="bold" fill="#FFFFFF" letter-spacing="1">YUMMYFILES // DEV</text>
  </a>
</svg>
